<svg xmlns="http://www.w3.org/2000/svg" width="72" height="150" viewBox="0 0 72 150" fill="none">
  <g transform="translate(72 0) scale(-1 1)">
    <path d="M58 13C27 42 17 79 24 136" stroke="#D3AD83" stroke-width="2.2" stroke-linecap="round"/>
    <path d="M50 31C39 31 30 36 25 45C36 46 45 41 50 31Z" fill="#D3AD83" opacity=".82"/>
    <path d="M40 50C30 51 22 58 19 68C30 67 38 60 40 50Z" fill="#D3AD83" opacity=".8"/>
    <path d="M33 73C23 76 17 84 16 95C27 92 34 84 33 73Z" fill="#D3AD83" opacity=".78"/>
    <path d="M31 97C22 102 18 112 20 123C30 117 34 108 31 97Z" fill="#D3AD83" opacity=".76"/>
    <path d="M31 119C24 126 23 136 28 145C36 137 37 127 31 119Z" fill="#D3AD83" opacity=".72"/>
    <path d="M55 49C44 45 34 48 27 56C37 62 48 59 55 49Z" fill="#E3C69F" opacity=".68"/>
    <path d="M47 72C36 69 27 73 22 82C33 86 42 82 47 72Z" fill="#E3C69F" opacity=".65"/>
    <path d="M43 96C32 95 24 101 21 111C32 113 40 107 43 96Z" fill="#E3C69F" opacity=".62"/>
  </g>
</svg>
