<svg xmlns="http://www.w3.org/2000/svg" width="24" height="24" viewBox="0 0 24 24" fill="none">
  <path d="M12 8.6C10.1 8.6 8.6 10.1 8.6 12C8.6 13.9 10.1 15.4 12 15.4C13.9 15.4 15.4 13.9 15.4 12C15.4 10.1 13.9 8.6 12 8.6Z" stroke="currentColor" stroke-width="1.35"/>
  <path d="M13.2 4.4L13.7 6.1C14.2 6.3 14.7 6.5 15.2 6.8L16.8 6L18 8.1L16.6 9.2C16.7 9.7 16.8 10.3 16.8 10.8L18.2 12L16.9 14.1L15.2 13.4C14.8 13.8 14.3 14.1 13.8 14.3L13.3 16H10.8L10.3 14.3C9.8 14.1 9.3 13.8 8.9 13.4L7.2 14.1L6 12L7.4 10.8C7.4 10.3 7.5 9.7 7.6 9.2L6.2 8.1L7.4 6L9 6.8C9.5 6.5 10 6.3 10.5 6.1L11 4.4H13.2Z" stroke="currentColor" stroke-width="1.15" stroke-linejoin="round"/>
</svg>
