<svg xmlns="http://www.w3.org/2000/svg" width="140" height="112" viewBox="0 0 140 112" fill="none">
  <path d="M0 0H140V112H0V0Z" fill="none"/>
  <ellipse cx="88" cy="100" rx="42" ry="7" fill="#9F735F" opacity=".12"/>
  <path d="M68 42H110C116 42 121 47 121 53V91C121 98 116 103 109 103H69C62 103 57 98 57 91V53C57 47 62 42 68 42Z" fill="#F3DCCB" opacity=".82"/>
  <path d="M70 46H108C113 46 117 50 117 55V90C117 95 113 99 108 99H70C65 99 61 95 61 90V55C61 50 65 46 70 46Z" stroke="#BFA17A" stroke-width="1.5" opacity=".72"/>
  <path d="M78 35H100V43H78V35Z" fill="#D7B27A" opacity=".74"/>
  <path d="M82 25H96V35H82V25Z" fill="#EBDCCB" stroke="#BFA17A" stroke-width="1.2"/>
  <circle cx="89" cy="17" r="13" fill="#FFF7EE" opacity=".86" stroke="#D7B27A" stroke-width="1.3"/>
  <path d="M76 64H102V82H76V64Z" fill="#FFF7EE" opacity=".72" stroke="#D7B27A"/>
  <path d="M81 71H97" stroke="#9F735F" stroke-width="1" opacity=".55"/>
  <path d="M84 77H94" stroke="#9F735F" stroke-width="1" opacity=".45"/>
  <path d="M36 78C24 73 19 62 22 51C34 55 40 66 36 78Z" fill="#E6B8AF" opacity=".76"/>
  <path d="M31 88C18 89 8 81 5 69C18 67 29 75 31 88Z" fill="#F0C7BF" opacity=".72"/>
  <path d="M45 93C34 99 21 96 13 87C25 80 38 83 45 93Z" fill="#EBC1B8" opacity=".68"/>
  <path d="M35 79C47 71 58 72 66 80C55 89 44 88 35 79Z" fill="#F5D7D1" opacity=".75"/>
  <path d="M34 91C45 86 55 89 61 98C50 103 40 100 34 91Z" fill="#E7B6AD" opacity=".65"/>
</svg>
